<svg width="50" height="50" viewBox="0 0 50 50" fill="none" xmlns="http://www.w3.org/2000/svg">
<path fill-rule="evenodd" clip-rule="evenodd" d="M0 0H50V50H0V0ZM20.2717 20.7768L22.9651 8.89177H20.0009L19.0251 13.2168H14.6151L15.5901 8.89093H12.6442L9.93424 20.7768H12.8801L14.0751 15.5068H18.5042L17.3084 20.7768H20.2717ZM33.1476 8.87427H30.1684L28.6867 15.5076C28.6756 15.5648 28.6644 15.6221 28.6531 15.6795C28.545 16.2311 28.4342 16.7956 28.4342 17.3601C28.4342 20.2209 31.0776 21.0293 33.0809 21.0293C35.0167 21.0293 36.4651 20.2709 37.2226 19.3959C37.9459 18.5543 38.1992 17.4768 38.3834 16.6859L40.1351 8.87427H37.1717L35.4551 16.2143C35.1176 17.3759 34.6976 18.5043 33.1817 18.5043C32.6434 18.5043 31.4142 18.2676 31.4142 17.0226C31.4205 16.722 31.4599 16.4229 31.5317 16.1309L33.1476 8.87427ZM32.2726 36.2643L34.9834 31.3834L35.3026 36.2643H32.2726ZM38.4842 40.7759L37.2226 28.8918H33.8901L26.6334 40.7759H29.7476L31.0609 38.4193H35.4376L35.5892 40.7759H38.4842ZM13.5517 28.7034L10.8676 40.5601H9.59424L12.3017 28.7034H13.5517ZM18.9209 28.7034L16.2376 40.5601H14.9642L17.6726 28.7034H18.9209ZM24.2909 28.7034L21.6067 40.5601H20.3334L23.0409 28.7034H24.2909Z" fill="#3B3F54"/>
</svg>
