<svg width="24" height="24" viewBox="0 0 24 24" fill="none" xmlns="http://www.w3.org/2000/svg">
<path fill-rule="evenodd" clip-rule="evenodd" d="M24 0H0V24H24V0ZM13.6253 20V9.4758H10.3747V20H13.6253ZM13.4147 7.71936L13.416 7.71832L13.4174 7.71725C13.8151 7.41043 14 6.9765 14 6.47073V5.66467C14 5.16116 13.8168 4.72882 13.4227 4.42221C13.0544 4.12051 12.554 4 11.9856 4C11.4271 4 10.9345 4.12442 10.5538 4.41815L10.5485 4.42224L10.5433 4.42648C10.1683 4.73648 10 5.16824 10 5.66467V6.47073C10 6.96719 10.1683 7.39896 10.5433 7.70892L10.5549 7.71844L10.5671 7.72711C10.9465 7.99545 11.4338 8.1076 11.9856 8.1076C12.55 8.1076 13.0469 7.99802 13.4147 7.71936Z" fill="white"/>
</svg>
