<svg width="209" height="50" viewBox="0 0 209 50" fill="none" xmlns="http://www.w3.org/2000/svg">
<path d="M21.2555 0.909729L21.7294 0.303483L22.53 0.206299L23.1363 0.681114H27.1347L27.74 0.206299L28.5397 0.303483L29.0145 0.908803L32.8991 1.86676L33.5998 1.5493L34.3532 1.83622L34.6698 2.53873L38.2063 4.39356L38.9625 4.25565L39.6252 4.71195L39.7641 5.47092L42.7592 8.12174L43.5256 8.16987L44.0596 8.77241L44.0133 9.54063L46.2828 12.8273L47.0168 13.0569L47.3944 13.7705L47.1649 14.5044L48.5829 18.2447L49.2428 18.6426L49.4344 19.4248L49.0373 20.0828L49.5177 24.0526L50.061 24.5968V25.4048L49.5177 25.9472L49.0373 29.9133L49.4372 30.5713L49.2456 31.3562L48.5847 31.7524L47.1667 35.4926L47.3963 36.2266L47.0187 36.942L46.2856 37.1697L44.0133 40.4601L44.0596 41.2302L43.5256 41.8318L42.7592 41.8771L39.7678 44.528L39.6289 45.2851L38.9681 45.7441L38.21 45.6035L34.6688 47.4611L34.3532 48.1645L33.5998 48.4505L32.8982 48.134L29.0201 49.0919L28.5444 49.6972L27.7447 49.7935L27.1394 49.3178H23.1391L22.5337 49.7935L21.734 49.6972L21.2592 49.0919L17.3756 48.134L16.6749 48.4505L15.9215 48.1645L15.605 47.4611L12.0684 45.6072L11.3113 45.746L10.6476 45.2869L10.5097 44.5289L7.51458 41.8771L6.74821 41.8318L6.21231 41.2302L6.25766 40.4601L3.99002 37.1753L3.2542 36.9457L2.87934 36.2321L3.10796 35.4963L1.68999 31.7561L1.03191 31.3599L0.838471 30.575L1.23646 29.9188L0.754245 25.9472L0.210938 25.4048V24.5968L0.754245 24.0526L1.23554 20.0884L0.83662 19.4285L1.03006 18.6464L1.68814 18.2484L3.10703 14.5081L2.87749 13.7742L3.25235 13.0596L3.98632 12.8301L6.25859 9.54063L6.21231 8.77241L6.74821 8.16987L7.51458 8.12174L10.506 5.47277L10.6439 4.71566L11.3075 4.2575L12.0637 4.39726L15.605 2.53873L15.9215 1.83622L16.6749 1.5493L17.3756 1.86676L21.2555 0.909729Z" fill="#3B3F54"/>
<path d="M29.4374 3.26645C29.6327 3.38399 29.9567 3.5543 30.2029 3.61261C30.4833 3.6811 30.7924 3.69869 30.873 3.37196C30.9507 3.05172 30.5518 2.92306 30.176 2.70278C29.7993 2.48249 29.4402 2.1715 29.6031 1.50047C29.7873 0.754461 30.6231 0.591562 31.2793 0.75261C31.6652 0.847943 32.004 1.02473 32.327 1.24871L31.9152 1.82627C31.705 1.68558 31.4033 1.54767 31.2182 1.50232C30.7869 1.3968 30.5879 1.5125 30.5351 1.73371C30.5009 1.8744 30.5712 2.01878 30.9516 2.20205C31.7902 2.6204 31.9438 3.03413 31.8254 3.5219C31.6153 4.37713 30.848 4.53632 30.077 4.34658C29.716 4.25958 29.3597 4.08557 29.0459 3.88658L29.4374 3.26645Z" fill="#3B3F54"/>
<path d="M29.4374 3.26645C29.6327 3.38399 29.9567 3.5543 30.2029 3.61261C30.4833 3.6811 30.7924 3.69869 30.873 3.37196C30.9507 3.05172 30.5518 2.92306 30.176 2.70278C29.7993 2.48249 29.4402 2.1715 29.6031 1.50047C29.7873 0.754461 30.6231 0.591562 31.2793 0.75261C31.6652 0.847943 32.004 1.02473 32.327 1.24871L31.9152 1.82627C31.705 1.68558 31.4033 1.54767 31.2182 1.50232C30.7869 1.3968 30.5879 1.5125 30.5351 1.73371C30.5009 1.8744 30.5712 2.01878 30.9516 2.20205C31.7902 2.6204 31.9438 3.03413 31.8254 3.5219C31.6153 4.37713 30.848 4.53632 30.077 4.34658C29.716 4.25958 29.3597 4.08557 29.0459 3.88658L29.4374 3.26645Z" stroke="#3B3F54" stroke-width="0.4"/>
<path d="M36.7718 2.83886C37.8455 3.40161 38.0797 4.48637 37.5993 5.40453C37.1162 6.32455 36.0906 6.74568 35.017 6.18386C33.9387 5.61834 33.7036 4.53358 34.1858 3.61356C34.669 2.6954 35.6945 2.27334 36.7718 2.83886ZM35.3585 5.52208C35.8324 5.77106 36.3859 5.65259 36.7496 4.96026C37.1134 4.26331 36.8977 3.74222 36.4229 3.49324C35.9527 3.24611 35.402 3.36366 35.0373 4.05876C34.6727 4.75386 34.8874 5.27588 35.3585 5.52208Z" fill="#3B3F54"/>
<path d="M36.7718 2.83886C37.8455 3.40161 38.0797 4.48637 37.5993 5.40453C37.1162 6.32455 36.0906 6.74568 35.017 6.18386C33.9387 5.61834 33.7036 4.53358 34.1858 3.61356C34.669 2.6954 35.6945 2.27334 36.7718 2.83886ZM35.3585 5.52208C35.8324 5.77106 36.3859 5.65259 36.7496 4.96026C37.1134 4.26331 36.8977 3.74222 36.4229 3.49324C35.9527 3.24611 35.402 3.36366 35.0373 4.05876C34.6727 4.75386 34.8874 5.27588 35.3585 5.52208Z" stroke="#3B3F54" stroke-width="0.4"/>
<path d="M40.9025 5.50903L38.583 8.35237C39.192 8.8457 39.7724 9.36864 40.324 9.92491L40.8849 9.36864C40.523 9.00304 40.1463 8.65133 39.7585 8.30887L41.6466 6.13842" fill="#3B3F54"/>
<path d="M40.9025 5.50903L38.583 8.35237C39.192 8.8457 39.7724 9.36864 40.324 9.92491L40.8849 9.36864C40.523 9.00304 40.1463 8.65133 39.7585 8.30887L41.6466 6.13842" stroke="#3B3F54" stroke-width="0.4"/>
<path d="M48.7495 16.5761L45.2786 17.809C45.1861 17.5489 45.0806 17.274 44.9741 17.0139L48.4006 15.645" fill="#3B3F54"/>
<path d="M48.7495 16.5761L45.2786 17.809C45.1861 17.5489 45.0806 17.274 44.9741 17.0139L48.4006 15.645" stroke="#3B3F54" stroke-width="0.4"/>
<path d="M50.1201 22.9356L47.2823 22.3626L47.2805 22.3534L49.9072 21.1566L49.7406 20.1931L46.3096 21.9832C46.3586 22.3173 46.3956 22.6477 46.428 22.9828L50.1766 23.8648" fill="#3B3F54"/>
<path d="M50.1201 22.9356L47.2823 22.3626L47.2805 22.3534L49.9072 21.1566L49.7406 20.1931L46.3096 21.9832C46.3586 22.3173 46.3956 22.6477 46.428 22.9828L50.1766 23.8648" stroke="#3B3F54" stroke-width="0.4"/>
<path d="M47.2299 26.6584C47.1355 26.8666 47.0087 27.2081 46.9791 27.459C46.9439 27.7468 46.9624 28.056 47.2965 28.0958C47.6251 28.1356 47.7056 27.7237 47.8769 27.322C48.0518 26.924 48.3156 26.5288 49.0042 26.6111C49.7659 26.7019 50.0279 27.5136 49.9474 28.1837C49.9002 28.5817 49.7622 28.9352 49.5818 29.2842L48.9561 28.9445C49.0718 28.7205 49.1736 28.404 49.1949 28.2124C49.2476 27.7727 49.1069 27.5885 48.8839 27.5636C48.7404 27.545 48.6044 27.632 48.4674 28.0356C48.1527 28.9149 47.7602 29.1185 47.2641 29.0583C46.3895 28.9528 46.1387 28.2105 46.2331 27.4219C46.2775 27.0536 46.4043 26.6787 46.5653 26.3464L47.2299 26.6584Z" fill="#3B3F54"/>
<path d="M47.2299 26.6584C47.1355 26.8666 47.0087 27.2081 46.9791 27.459C46.9439 27.7468 46.9624 28.056 47.2965 28.0958C47.6251 28.1356 47.7056 27.7237 47.8769 27.322C48.0518 26.924 48.3156 26.5288 49.0042 26.6111C49.7659 26.7019 50.0279 27.5136 49.9474 28.1837C49.9002 28.5817 49.7622 28.9352 49.5818 29.2842L48.9561 28.9445C49.0718 28.7205 49.1736 28.404 49.1949 28.2124C49.2476 27.7727 49.1069 27.5885 48.8839 27.5636C48.7404 27.545 48.6044 27.632 48.4674 28.0356C48.1527 28.9149 47.7602 29.1185 47.2641 29.0583C46.3895 28.9528 46.1387 28.2105 46.2331 27.4219C46.2775 27.0536 46.4043 26.6787 46.5653 26.3464L47.2299 26.6584Z" stroke="#3B3F54" stroke-width="0.4"/>
<path d="M48.0274 35.2319L47.1786 34.8543C47.3027 34.5794 47.423 34.2952 47.535 34.012L44.9795 32.98C45.0841 32.7199 45.1868 32.4432 45.2784 32.1831L47.8774 33.1142C47.9765 32.8319 48.0746 32.5487 48.1634 32.2646L49.0437 32.5413" fill="#3B3F54"/>
<path d="M48.0274 35.2319L47.1786 34.8543C47.3027 34.5794 47.423 34.2952 47.535 34.012L44.9795 32.98C45.0841 32.7199 45.1868 32.4432 45.2784 32.1831L47.8774 33.1142C47.9765 32.8319 48.0746 32.5487 48.1634 32.2646L49.0437 32.5413" stroke="#3B3F54" stroke-width="0.4"/>
<path d="M45.4738 39.6541L42.4897 37.4957C42.6517 37.2698 42.8192 37.0236 42.972 36.7922L46.043 38.835" fill="#3B3F54"/>
<path d="M45.4738 39.6541L42.4897 37.4957C42.6517 37.2698 42.8192 37.0236 42.972 36.7922L46.043 38.835" stroke="#3B3F54" stroke-width="0.4"/>
<path d="M40.6445 44.6957L40.0697 43.9728C40.3085 43.7831 40.5454 43.5915 40.7778 43.3925L38.9951 41.2887C39.2089 41.1082 39.4274 40.911 39.6319 40.7231L41.4969 42.7548C41.7191 42.5521 41.9356 42.3466 42.1448 42.1346L42.7955 42.7927" fill="#3B3F54"/>
<path d="M40.6445 44.6957L40.0697 43.9728C40.3085 43.7831 40.5454 43.5915 40.7778 43.3925L38.9951 41.2887C39.2089 41.1082 39.4274 40.911 39.6319 40.7231L41.4969 42.7548C41.7191 42.5521 41.9356 42.3466 42.1448 42.1346L42.7955 42.7927" stroke="#3B3F54" stroke-width="0.4"/>
<path d="M36.3356 47.4346L34.6909 44.1303C34.9408 44.0035 35.2 43.8675 35.4443 43.7305L37.2177 46.9681" fill="#3B3F54"/>
<path d="M36.3356 47.4346L34.6909 44.1303C34.9408 44.0035 35.2 43.8675 35.4443 43.7305L37.2177 46.9681" stroke="#3B3F54" stroke-width="0.4"/>
<path d="M29.3224 49.7217L28.6865 46.0953C29.4075 45.9741 30.1239 45.8149 30.8292 45.6177L31.1013 46.5507C31.4854 46.4443 31.8658 46.3249 32.2444 46.1962L32.4314 45.4771L32.9858 46.7229L32.2601 49.0405L29.3224 49.7217Z" fill="#3B3F54"/>
<path d="M29.3224 49.7217L28.6865 46.0953C29.4075 45.9741 30.1239 45.8149 30.8292 45.6177L31.1013 46.5507C31.4854 46.4443 31.8658 46.3249 32.2444 46.1962L32.4314 45.4771L32.9858 46.7229L32.2601 49.0405L29.3224 49.7217Z" stroke="#3B3F54" stroke-width="0.4"/>
<path d="M18.6714 49.2244L19.6293 45.6628C19.8996 45.735 20.1865 45.8017 20.4605 45.8637L19.6423 49.4651" fill="#3B3F54"/>
<path d="M18.6714 49.2244L19.6293 45.6628C19.8996 45.735 20.1865 45.8017 20.4605 45.8637L19.6423 49.4651" stroke="#3B3F54" stroke-width="0.4"/>
<path d="M14.5092 47.7093L16.0817 44.3791C15.3727 44.0469 14.6822 43.6776 14.0131 43.2712L13.603 43.9469C14.0427 44.2144 14.4925 44.4661 14.9507 44.7022L13.6225 47.2743" fill="#3B3F54"/>
<path d="M14.5092 47.7093L16.0817 44.3791C15.3727 44.0469 14.6822 43.6776 14.0131 43.2712L13.603 43.9469C14.0427 44.2144 14.4925 44.4661 14.9507 44.7022L13.6225 47.2743" stroke="#3B3F54" stroke-width="0.4"/>
<path d="M9.3873 44.5006L11.7049 41.648C11.0968 41.1565 10.5146 40.6317 9.96208 40.0754L9.40211 40.6345C9.76586 41.001 10.1416 41.3518 10.5295 41.6924L8.63574 43.8555" fill="#3B3F54"/>
<path d="M9.3873 44.5006L11.7049 41.648C11.0968 41.1565 10.5146 40.6317 9.96208 40.0754L9.40211 40.6345C9.76586 41.001 10.1416 41.3518 10.5295 41.6924L8.63574 43.8555" stroke="#3B3F54" stroke-width="0.4"/>
<path d="M3.50293 37.6653L7.23111 36.7C7.41437 36.9804 7.60411 37.2571 7.80126 37.5283L5.59934 40.703L4.99957 39.933L6.76925 37.6551L6.7637 37.6477L3.98793 38.4632" fill="#3B3F54"/>
<path d="M3.50293 37.6653L7.23111 36.7C7.41437 36.9804 7.60411 37.2571 7.80126 37.5283L5.59934 40.703L4.99957 39.933L6.76925 37.6551L6.7637 37.6477L3.98793 38.4632" stroke="#3B3F54" stroke-width="0.4"/>
<path d="M4.8117 33.8223C4.79781 33.5946 4.75246 33.229 4.66176 32.993C4.55902 32.7227 4.39704 32.4589 4.0842 32.5783C3.77506 32.6959 3.89631 33.0985 3.92871 33.5326C3.96295 33.9685 3.91112 34.4397 3.26508 34.6859C2.54684 34.9598 1.93781 34.3638 1.69717 33.7353C1.55463 33.3632 1.50928 32.9837 1.50928 32.5894L2.22011 32.6024C2.22289 32.8532 2.28027 33.179 2.34877 33.3595C2.50611 33.7732 2.71529 33.8714 2.92724 33.7881C3.06238 33.7372 3.14105 33.5983 3.07533 33.179C2.94298 32.2516 3.19658 31.8916 3.66492 31.7129C4.48867 31.3982 5.05327 31.9369 5.33742 32.6802C5.4707 33.0272 5.53086 33.4178 5.54567 33.7881L4.8117 33.8223Z" fill="#3B3F54"/>
<path d="M4.8117 33.8223C4.79781 33.5946 4.75246 33.229 4.66176 32.993C4.55902 32.7227 4.39704 32.4589 4.0842 32.5783C3.77506 32.6959 3.89631 33.0985 3.92871 33.5326C3.96295 33.9685 3.91112 34.4397 3.26508 34.6859C2.54684 34.9598 1.93781 34.3638 1.69717 33.7353C1.55463 33.3632 1.50928 32.9837 1.50928 32.5894L2.22011 32.6024C2.22289 32.8532 2.28027 33.179 2.34877 33.3595C2.50611 33.7732 2.71529 33.8714 2.92724 33.7881C3.06238 33.7372 3.14105 33.5983 3.07533 33.179C2.94298 32.2516 3.19658 31.8916 3.66492 31.7129C4.48867 31.3982 5.05327 31.9369 5.33742 32.6802C5.4707 33.0272 5.53086 33.4178 5.54567 33.7881L4.8117 33.8223Z" stroke="#3B3F54" stroke-width="0.4"/>
<path d="M0.12207 26.5899L1.03838 26.5325C1.05782 26.8342 1.08373 27.1396 1.11613 27.4451L3.85858 27.1683C3.8882 27.4451 3.92522 27.7394 3.96502 28.0143L1.23182 28.3993C1.27347 28.6937 1.32068 28.9908 1.37344 29.2833L0.462679 29.4471" fill="#3B3F54"/>
<path d="M0.12207 26.5899L1.03838 26.5325C1.05782 26.8342 1.08373 27.1396 1.11613 27.4451L3.85858 27.1683C3.8882 27.4451 3.92522 27.7394 3.96502 28.0143L1.23182 28.3993C1.27347 28.6937 1.32068 28.9908 1.37344 29.2833L0.462679 29.4471" stroke="#3B3F54" stroke-width="0.4"/>
<path d="M4.16597 20.815C4.08637 21.1427 4.03639 21.4509 3.99104 21.7711C3.99104 21.7711 3.42366 21.9248 3.1608 22.0229C2.83963 22.1386 2.53975 22.3283 2.49347 22.5736C2.48421 22.6226 2.48144 22.6809 2.47866 22.7115L3.86053 22.8466C3.83276 23.1289 3.80962 23.4112 3.79296 23.6944L0.248047 23.4927C0.278591 22.9882 0.324869 22.4893 0.385031 21.9886C0.471108 21.2778 0.820047 20.6938 1.46517 20.741C1.99459 20.7771 2.33057 21.1352 2.34168 21.7026L2.35834 21.7063C2.49717 21.5434 2.6212 21.4805 2.84426 21.3537C3.19505 21.151 4.16597 20.815 4.16597 20.815Z" fill="#3B3F54"/>
<path d="M4.16597 20.815C4.08637 21.1427 4.03639 21.4509 3.99104 21.7711C3.99104 21.7711 3.42366 21.9248 3.1608 22.0229C2.83963 22.1386 2.53975 22.3283 2.49347 22.5736C2.48421 22.6226 2.48144 22.6809 2.47866 22.7115L3.86053 22.8466C3.83276 23.1289 3.80962 23.4112 3.79296 23.6944L0.248047 23.4927C0.278591 22.9882 0.324869 22.4893 0.385031 21.9886C0.471108 21.2778 0.820047 20.6938 1.46517 20.741C1.99459 20.7771 2.33057 21.1352 2.34168 21.7026L2.35834 21.7063C2.49717 21.5434 2.6212 21.4805 2.84426 21.3537C3.19505 21.151 4.16597 20.815 4.16597 20.815Z" stroke="#3B3F54" stroke-width="0.4"/>
<path d="M1.88517 15.6125L5.86788 15.7208C5.72535 16.0161 5.58929 16.3178 5.45971 16.6177L4.62207 16.5798C4.46287 16.9648 4.31571 17.3554 4.17873 17.7515L4.8331 18.2791C4.73314 18.579 4.64058 18.8826 4.55451 19.1899L1.53809 16.527" fill="#3B3F54"/>
<path d="M1.88517 15.6125L5.86788 15.7208C5.72535 16.0161 5.58929 16.3178 5.45971 16.6177L4.62207 16.5798C4.46287 16.9648 4.31571 17.3554 4.17873 17.7515L4.8331 18.2791C4.73314 18.579 4.64058 18.8826 4.55451 19.1899L1.53809 16.527" stroke="#3B3F54" stroke-width="0.4"/>
<path d="M8.02338 6.68262L10.7149 7.5832L9.1609 5.67746L9.89302 5.10083L12.0885 8.05431C11.8376 8.24775 11.5905 8.44675 11.3489 8.6513L8.7518 7.79238L10.3928 9.50837C10.2059 9.68701 10.0226 9.86564 9.84212 10.0526L7.20703 7.48324" fill="#3B3F54"/>
<path d="M8.02338 6.68262L10.7149 7.5832L9.1609 5.67746L9.89302 5.10083L12.0885 8.05431C11.8376 8.24775 11.5905 8.44675 11.3489 8.6513L8.7518 7.79238L10.3928 9.50837C10.2059 9.68701 10.0226 9.86564 9.84212 10.0526L7.20703 7.48324" stroke="#3B3F54" stroke-width="0.4"/>
<path d="M13.5016 2.83803C14.5753 2.27344 15.5999 2.69642 16.084 3.61458C16.5653 4.53459 16.332 5.61751 15.2574 6.18303C14.1791 6.7467 13.1536 6.32556 12.6714 5.40555C12.1892 4.48832 12.4233 3.40448 13.5016 2.83803ZM14.9085 5.52773C15.3833 5.2769 15.599 4.7558 15.2343 4.06163C14.8678 3.36746 14.3171 3.24806 13.8432 3.49889C13.3721 3.74509 13.1555 4.26711 13.5211 4.96221C13.8848 5.6536 14.4365 5.77393 14.9085 5.52773Z" fill="#3B3F54"/>
<path d="M13.5016 2.83803C14.5753 2.27344 15.5999 2.69642 16.084 3.61458C16.5653 4.53459 16.332 5.61751 15.2574 6.18303C14.1791 6.7467 13.1536 6.32556 12.6714 5.40555C12.1892 4.48832 12.4233 3.40448 13.5016 2.83803ZM14.9085 5.52773C15.3833 5.2769 15.599 4.7558 15.2343 4.06163C14.8678 3.36746 14.3171 3.24806 13.8432 3.49889C13.3721 3.74509 13.1555 4.26711 13.5211 4.96221C13.8848 5.6536 14.4365 5.77393 14.9085 5.52773Z" stroke="#3B3F54" stroke-width="0.4"/>
<path d="M18.8414 3.75887C19.0682 3.7709 19.4347 3.7709 19.68 3.71074C19.9614 3.6404 20.2427 3.51267 20.1631 3.18502C20.0826 2.8657 19.6689 2.93604 19.2339 2.91753C18.7979 2.89717 18.3352 2.78888 18.1676 2.11784C17.9825 1.37183 18.6489 0.840559 19.3033 0.675808C19.6902 0.580474 20.0724 0.580474 20.4621 0.628604L20.3658 1.33203C20.1141 1.30519 19.7837 1.3237 19.5995 1.36906C19.1672 1.47642 19.046 1.67172 19.1006 1.89108C19.1348 2.03176 19.2663 2.12617 19.6883 2.11321C20.6241 2.09285 20.9517 2.3881 21.073 2.87495C21.2859 3.7311 20.6815 4.2272 19.9105 4.41972C19.5495 4.50858 19.1534 4.52061 18.7841 4.49007L18.8414 3.75887Z" fill="#3B3F54"/>
<path d="M18.8414 3.75887C19.0682 3.7709 19.4347 3.7709 19.68 3.71074C19.9614 3.6404 20.2427 3.51267 20.1631 3.18502C20.0826 2.8657 19.6689 2.93604 19.2339 2.91753C18.7979 2.89717 18.3352 2.78888 18.1676 2.11784C17.9825 1.37183 18.6489 0.840559 19.3033 0.675808C19.6902 0.580474 20.0724 0.580474 20.4621 0.628604L20.3658 1.33203C20.1141 1.30519 19.7837 1.3237 19.5995 1.36906C19.1672 1.47642 19.046 1.67172 19.1006 1.89108C19.1348 2.03176 19.2663 2.12617 19.6883 2.11321C20.6241 2.09285 20.9517 2.3881 21.073 2.87495C21.2859 3.7311 20.6815 4.2272 19.9105 4.41972C19.5495 4.50858 19.1534 4.52061 18.7841 4.49007L18.8414 3.75887Z" stroke="#3B3F54" stroke-width="0.4"/>
<path d="M25.1369 2.78045C25.6348 2.78045 26.0384 2.37783 26.0384 1.87987C26.0384 1.38285 25.6348 0.980225 25.1369 0.980225C24.6389 0.980225 24.2354 1.38285 24.2354 1.87987C24.2354 2.37783 24.6389 2.78045 25.1369 2.78045Z" fill="#3B3F54"/>
<path d="M25.1374 2.78138C25.6348 2.78138 26.038 2.37817 26.038 1.8808C26.038 1.38343 25.6348 0.980225 25.1374 0.980225C24.64 0.980225 24.2368 1.38343 24.2368 1.8808C24.2368 2.37817 24.64 2.78138 25.1374 2.78138Z" stroke="#3B3F54" stroke-width="0.4"/>
<path d="M43.4264 12.3822C43.7078 12.7923 44.2705 12.8959 44.6796 12.6118C45.0887 12.3295 45.1896 11.7695 44.9082 11.3604C44.6268 10.9504 44.0659 10.8495 43.6568 11.1309C43.2468 11.4132 43.1441 11.9741 43.4264 12.3822Z" fill="#3B3F54"/>
<path d="M44.1667 12.771C44.6636 12.771 45.0664 12.3682 45.0664 11.8713C45.0664 11.3745 44.6636 10.9717 44.1667 10.9717C43.6699 10.9717 43.2671 11.3745 43.2671 11.8713C43.2671 12.3682 43.6699 12.771 44.1667 12.771Z" stroke="#3B3F54" stroke-width="0.4"/>
<path d="M25.1369 47.2197C25.6348 47.2197 26.0384 47.6233 26.0384 48.1222C26.0384 48.621 25.6348 49.0227 25.1369 49.0227C24.6389 49.0227 24.2354 48.621 24.2354 48.1222C24.2354 47.6233 24.6389 47.2197 25.1369 47.2197Z" fill="#3B3F54"/>
<path d="M25.1369 49.0218C25.6347 49.0218 26.0384 48.6181 26.0384 48.1203C26.0384 47.6224 25.6347 47.2188 25.1369 47.2188C24.639 47.2188 24.2354 47.6224 24.2354 48.1203C24.2354 48.6181 24.639 49.0218 25.1369 49.0218Z" stroke="#3B3F54" stroke-width="0.4"/>
<path d="M6.8462 12.3822C7.1285 11.9741 7.02668 11.4132 6.61758 11.1309C6.20756 10.8495 5.64667 10.9504 5.36437 11.3604C5.08207 11.7695 5.18481 12.3295 5.59483 12.6118C6.00301 12.8959 6.5639 12.7923 6.8462 12.3822Z" fill="#3B3F54"/>
<path d="M6.1057 12.771C6.60257 12.771 7.00535 12.3682 7.00535 11.8713C7.00535 11.3745 6.60257 10.9717 6.1057 10.9717C5.60884 10.9717 5.20605 11.3745 5.20605 11.8713C5.20605 12.3682 5.60884 12.771 6.1057 12.771Z" stroke="#3B3F54" stroke-width="0.4"/>
<path d="M27.5249 34.6829L33.5994 48.4507L34.3528 48.1647" fill="#3B3F54"/>
<path d="M15.4289 21.3251L1.12798 18.5974L1.02987 18.6455L0.836426 19.4286" fill="#3B3F54"/>
<path d="M3.2523 13.0598L2.87744 13.7744L2.9265 13.8965L15.429 21.326" fill="#3B3F54"/>
<path d="M22.4927 0L25.137 15.0284L27.7804 0" fill="#DACBB2"/>
<path d="M28.5565 0.0935059L27.5254 15.3181L33.6887 1.35875" fill="#DACBB2"/>
<path d="M34.4137 1.63354L29.772 16.1714L39.0971 4.09092" fill="#DACBB2"/>
<path d="M39.7368 4.53418L31.751 17.5356L43.6936 8.04115" fill="#DACBB2"/>
<path d="M44.2085 8.62158L33.3442 19.3369L47.2129 12.9736" fill="#DACBB2"/>
<path d="M47.5729 13.6641L34.4604 21.462L49.4481 18.6066" fill="#DACBB2"/>
<path d="M49.637 19.3638L35.0371 23.8L50.2729 24.6117" fill="#DACBB2"/>
<path d="M50.2728 25.3892L35.0361 26.2027L49.6369 30.639" fill="#DACBB2"/>
<path d="M49.4491 31.3924L34.4614 28.5361L47.5739 36.3387" fill="#DACBB2"/>
<path d="M47.2129 37.0293L33.3442 30.666L44.2085 41.3785" fill="#DACBB2"/>
<path d="M43.6936 41.9606L31.751 32.4624L39.7368 45.4657" fill="#DACBB2"/>
<path d="M39.0961 45.9109L29.771 33.8313L34.4127 48.3673" fill="#DACBB2"/>
<path d="M27.7804 49.9999L25.137 34.9714L22.4927 49.9999" fill="#DACBB2"/>
<path d="M21.7191 49.9073L22.7502 34.6826L16.5859 48.6401" fill="#DACBB2"/>
<path d="M15.8616 48.3673L20.5043 33.8313L11.1792 45.9109" fill="#DACBB2"/>
<path d="M10.5363 45.4657L18.524 32.4624L6.57861 41.9606" fill="#DACBB2"/>
<path d="M6.0664 41.3785L16.9316 30.666L3.06201 37.0293" fill="#DACBB2"/>
<path d="M2.69985 36.3387L15.8123 28.5361L0.82373 31.3924" fill="#DACBB2"/>
<path d="M0.636789 30.639L15.2376 26.2027L0 25.3892" fill="#DACBB2"/>
<path d="M0 24.6117L15.2376 23.8L0.636789 19.3638" fill="#DACBB2"/>
<path d="M0.82373 18.6066L15.8123 21.462L2.69985 13.6641" fill="#DACBB2"/>
<path d="M3.06201 12.9736L16.9307 19.3369L6.0664 8.62158" fill="#DACBB2"/>
<path d="M6.57861 8.04115L18.5249 17.5356L10.5363 4.53418" fill="#DACBB2"/>
<path d="M11.1792 4.09122L20.5043 16.1708L15.8616 1.63477" fill="#DACBB2"/>
<path d="M16.5859 1.35875L22.7502 15.3181L21.7191 0.0935059" fill="#DACBB2"/>
<path d="M40.9025 5.50879L38.583 8.35213C39.192 8.84545 39.7724 9.3684 40.324 9.92466L40.8849 9.3684C40.523 9.0028 40.1463 8.65109 39.7585 8.30863L41.6466 6.13817" fill="#3B3F54"/>
<path d="M48.7495 16.5761L45.2786 17.809C45.1861 17.5489 45.0806 17.274 44.9741 17.0139L48.4006 15.645" fill="#3B3F54"/>
<path d="M50.1206 22.9353L47.2828 22.3624L47.281 22.3531L49.9077 21.1564L49.7411 20.1929L46.3101 21.9829C46.3591 22.317 46.3961 22.6475 46.4285 22.9825L50.1771 23.8646" fill="#3B3F54"/>
<path d="M48.0279 35.2317L47.1791 34.854C47.3032 34.5792 47.4235 34.295 47.5355 34.0118L44.98 32.9798C45.0846 32.7197 45.1873 32.4429 45.2789 32.1829L47.8779 33.114C47.977 32.8317 48.0751 32.5485 48.1639 32.2643L49.0441 32.5411" fill="#3B3F54"/>
<path d="M45.4743 39.6541L42.4902 37.4957C42.6522 37.2698 42.8197 37.0236 42.9725 36.7922L46.0435 38.835" fill="#3B3F54"/>
<path d="M40.6445 44.6957L40.0697 43.9728C40.3085 43.7831 40.5454 43.5915 40.7778 43.3925L38.9951 41.2887C39.2089 41.1082 39.4274 40.911 39.6319 40.7231L41.4969 42.7548C41.7191 42.5521 41.9356 42.3466 42.1448 42.1346L42.7955 42.7927" fill="#3B3F54"/>
<path d="M36.3356 47.4343L34.6909 44.1301C34.9408 44.0033 35.2 43.8672 35.4443 43.7302L37.2177 46.9679" fill="#3B3F54"/>
<path d="M33.6887 48.6401L27.5244 34.6826L28.5564 49.9073" fill="#DACBB2"/>
<path d="M32.2606 49.0393L32.9863 46.7216L32.4319 45.4758L32.2449 46.195C31.8663 46.3236 31.4859 46.443 31.1018 46.5495L30.8297 45.6165C30.1244 45.8137 29.408 45.9729 28.687 46.0941L28.8175 46.8734C29.2599 46.7994 29.7005 46.7124 30.1929 46.5967L30.3475 47.2113C29.8856 47.3177 29.4774 47.401 29.0674 47.4732L29.1831 48.1748C29.6154 48.1007 30.0337 48.0137 30.5196 47.9036L30.6696 48.5034C30.1337 48.6283 29.6542 48.7236 29.1739 48.8051L29.3229 49.7195L32.2606 49.0393ZM31.622 48.4922L31.2804 47.2409C31.5266 47.1724 31.8015 47.0909 32.0579 47.0113L31.6673 48.4811L31.622 48.4922Z" fill="#3B3F54"/>
<path d="M18.6714 49.2244L19.6293 45.6628C19.8996 45.735 20.1865 45.8017 20.4605 45.8637L19.6423 49.4651" fill="#3B3F54"/>
<path d="M14.5087 47.7093L16.0812 44.3791C15.3722 44.0469 14.6817 43.6776 14.0126 43.2712L13.6025 43.9469C14.0422 44.2144 14.492 44.4661 14.9502 44.7022L13.622 47.2743" fill="#3B3F54"/>
<path d="M9.3873 44.5006L11.7049 41.648C11.0968 41.1565 10.5146 40.6317 9.96208 40.0754L9.40211 40.6345C9.76586 41.001 10.1416 41.3518 10.5295 41.6924L8.63574 43.8555" fill="#3B3F54"/>
<path d="M3.50342 37.6653L7.2316 36.7C7.41486 36.9804 7.6046 37.2571 7.80175 37.5283L5.59982 40.703L5.00006 39.933L6.76974 37.6551L6.76419 37.6477L3.98841 38.4632" fill="#3B3F54"/>
<path d="M0.12207 26.5899L1.03838 26.5325C1.05782 26.8342 1.08373 27.1396 1.11613 27.4451L3.85858 27.1683C3.8882 27.4451 3.92522 27.7394 3.96502 28.0143L1.23182 28.3993C1.27347 28.6937 1.32068 28.9908 1.37344 29.2833L0.462679 29.4471" fill="#3B3F54"/>
<path d="M0.225727 21.9757L0.384925 21.9886C0.471928 21.2778 0.820866 20.6938 1.46599 20.741C1.99541 20.7771 2.33046 21.1352 2.3425 21.7026L2.35916 21.7063C2.49799 21.5434 2.62109 21.4805 2.84508 21.3537C3.19494 21.151 4.16679 20.815 4.16679 20.815C4.08626 21.1417 4.03721 21.4509 3.99093 21.7711C3.99093 21.7711 3.42448 21.9248 3.1607 22.0229C2.84045 22.1386 2.54057 22.3283 2.49429 22.5736C2.48503 22.6226 2.48226 22.6809 2.47948 22.7115L3.86135 22.8466C3.83358 23.1289 3.81044 23.4112 3.79378 23.6944L0.0776367 23.4797L0.225727 21.9757ZM1.00043 22.1635C0.985617 22.2978 0.98284 22.431 0.967106 22.5773L1.85102 22.6661C1.86213 22.543 1.87971 22.3968 1.8936 22.2681C1.92044 22.0479 1.87601 21.71 1.51782 21.6702C1.22534 21.636 1.04115 21.7933 1.00043 22.1635Z" fill="#3B3F54"/>
<path d="M1.88615 15.6125L5.86793 15.7218C5.72632 16.0161 5.59026 16.3178 5.46069 16.6177L4.62212 16.5798C4.46385 16.9648 4.31576 17.3554 4.1797 17.7515L4.83408 18.2791C4.73412 18.5799 4.64156 18.8835 4.55548 19.1908L1.53906 16.5279L1.88615 15.6125ZM2.4526 16.4011L3.6077 17.2887C3.70211 17.0268 3.80022 16.7695 3.90296 16.5094L2.4563 16.39L2.4526 16.4011Z" fill="#3B3F54"/>
<path d="M8.02387 6.68262L10.7154 7.5832L9.16139 5.67746L9.89351 5.10083L12.089 8.05431C11.8381 8.24775 11.591 8.44675 11.3494 8.6513L8.75229 7.79238L10.3933 9.50837C10.2064 9.68701 10.0231 9.86564 9.84261 10.0526L7.20752 7.48324" fill="#3B3F54"/>
<path d="M29.4374 3.26645C29.6327 3.38399 29.9567 3.5543 30.2029 3.61261C30.4833 3.6811 30.7924 3.69869 30.873 3.37196C30.9507 3.05172 30.5518 2.92306 30.176 2.70278C29.7993 2.48249 29.4402 2.1715 29.6031 1.50047C29.7873 0.754461 30.6231 0.591562 31.2793 0.75261C31.6652 0.847943 32.004 1.02473 32.327 1.24871L31.9152 1.82627C31.705 1.68558 31.4033 1.54767 31.2182 1.50232C30.7869 1.3968 30.5879 1.5125 30.5351 1.73371C30.5009 1.8744 30.5712 2.01878 30.9516 2.20205C31.7902 2.6204 31.9438 3.03413 31.8254 3.5219C31.6153 4.37713 30.848 4.53632 30.077 4.34658C29.716 4.25958 29.3597 4.08557 29.0459 3.88658L29.4374 3.26645Z" fill="#3B3F54"/>
<path d="M36.7718 2.83886C37.8455 3.40161 38.0797 4.48637 37.5993 5.40453C37.1162 6.32455 36.0906 6.74568 35.017 6.18386C33.9387 5.61834 33.7036 4.53358 34.1858 3.61356C34.669 2.6954 35.6945 2.27334 36.7718 2.83886ZM35.3585 5.52208C35.8324 5.77106 36.3859 5.65259 36.7496 4.96026C37.1134 4.26331 36.8977 3.74222 36.4229 3.49324C35.9527 3.24611 35.402 3.36366 35.0373 4.05876C34.6727 4.75386 34.8874 5.27588 35.3585 5.52208Z" fill="#3B3F54"/>
<path d="M47.2294 26.6584C47.135 26.8666 47.0082 27.2081 46.9786 27.459C46.9434 27.7468 46.9619 28.056 47.296 28.0958C47.6246 28.1356 47.7051 27.7237 47.8764 27.322C48.0513 26.924 48.3151 26.5288 49.0037 26.6111C49.7655 26.7019 50.0274 27.5136 49.9469 28.1837C49.8997 28.5817 49.7618 28.9352 49.5813 29.2842L48.9556 28.9445C49.0713 28.7205 49.1731 28.404 49.1944 28.2124C49.2471 27.7727 49.1065 27.5885 48.8834 27.5636C48.7399 27.545 48.6039 27.632 48.4669 28.0356C48.1522 28.9149 47.7598 29.1185 47.2636 29.0583C46.389 28.9528 46.1382 28.2105 46.2326 27.4219C46.277 27.0536 46.4038 26.6787 46.5648 26.3464L47.2294 26.6584Z" fill="#3B3F54"/>
<path d="M4.8117 33.8223C4.79781 33.5946 4.75246 33.229 4.66176 32.993C4.55902 32.7227 4.39704 32.4589 4.0842 32.5783C3.77506 32.6959 3.89631 33.0985 3.92871 33.5326C3.96295 33.9685 3.91112 34.4397 3.26508 34.6859C2.54684 34.9598 1.93781 34.3638 1.69717 33.7353C1.55463 33.3632 1.50928 32.9837 1.50928 32.5894L2.22011 32.6024C2.22289 32.8532 2.28027 33.179 2.34877 33.3595C2.50611 33.7732 2.71529 33.8714 2.92724 33.7881C3.06238 33.7372 3.14105 33.5983 3.07533 33.179C2.94298 32.2516 3.19658 31.8916 3.66492 31.7129C4.48867 31.3982 5.05327 31.9369 5.33742 32.6802C5.4707 33.0272 5.53086 33.4178 5.54567 33.7881L4.8117 33.8223Z" fill="#3B3F54"/>
<path d="M13.5021 2.83803C14.5758 2.27344 15.6004 2.69642 16.0845 3.61458C16.5657 4.53459 16.3325 5.61751 15.2579 6.18303C14.1796 6.7467 13.1541 6.32556 12.6719 5.40555C12.1897 4.48832 12.4238 3.40448 13.5021 2.83803ZM14.909 5.52773C15.3838 5.2769 15.5995 4.7558 15.2348 4.06163C14.8683 3.36746 14.3175 3.24806 13.8437 3.49889C13.3725 3.74509 13.156 4.26711 13.5216 4.96221C13.8853 5.6536 14.4369 5.77393 14.909 5.52773Z" fill="#3B3F54"/>
<path d="M18.8419 3.75887C19.0687 3.7709 19.4352 3.7709 19.6805 3.71074C19.9619 3.6404 20.2432 3.51267 20.1636 3.18502C20.0831 2.8657 19.6694 2.93604 19.2344 2.91753C18.7984 2.89717 18.3356 2.78888 18.1681 2.11784C17.983 1.37183 18.6494 0.840559 19.3038 0.675808C19.6907 0.580474 20.0729 0.580474 20.4626 0.628604L20.3663 1.33203C20.1146 1.30519 19.7842 1.3237 19.6 1.36906C19.1677 1.47642 19.0465 1.67172 19.1011 1.89108C19.1353 2.03176 19.2668 2.12617 19.6888 2.11321C20.6246 2.09285 20.9522 2.3881 21.0735 2.87495C21.2863 3.7311 20.6819 4.2272 19.911 4.41972C19.55 4.50858 19.1538 4.52061 18.7845 4.49007L18.8419 3.75887Z" fill="#3B3F54"/>
<path d="M25.1373 2.78069C25.6353 2.78069 26.0388 2.37807 26.0388 1.88012C26.0388 1.38309 25.6353 0.980469 25.1373 0.980469C24.6394 0.980469 24.2358 1.38309 24.2358 1.88012C24.2358 2.37807 24.6394 2.78069 25.1373 2.78069Z" fill="#3B3F54"/>
<path d="M43.4269 12.3825C43.7082 12.7925 44.271 12.8962 44.6801 12.612C45.0892 12.3297 45.1901 11.7698 44.9087 11.3607C44.6273 10.9506 44.0664 10.8497 43.6573 11.1311C43.2473 11.4134 43.1446 11.9743 43.4269 12.3825Z" fill="#3B3F54"/>
<path d="M25.1373 47.2197C25.6353 47.2197 26.0388 47.6233 26.0388 48.1222C26.0388 48.621 25.6353 49.0227 25.1373 49.0227C24.6394 49.0227 24.2358 48.621 24.2358 48.1222C24.2358 47.6233 24.6394 47.2197 25.1373 47.2197Z" fill="#3B3F54"/>
<path d="M6.8462 12.3825C7.1285 11.9743 7.02668 11.4134 6.61758 11.1311C6.20756 10.8497 5.64667 10.9506 5.36437 11.3607C5.08207 11.7698 5.18481 12.3297 5.59483 12.612C6.00301 12.8962 6.5639 12.7925 6.8462 12.3825Z" fill="#3B3F54"/>
<path d="M28.5566 28.4167C28.2752 28.7046 27.8855 28.8814 27.4533 28.8814H26.5453C26.0372 28.8814 25.5864 29.1276 25.3051 29.5071H24.97C24.6896 29.1276 24.2379 28.8814 23.7298 28.8814H22.8236C21.9703 28.8814 21.2798 28.1909 21.2798 27.3375V21.1409" fill="#DACBB2"/>
<path d="M21.2788 21.1409H28.9962V27.3375C28.9962 27.7605 28.8287 28.1381 28.5556 28.4167" fill="#3B3F54"/>
<path d="M29.3986 27.3179C29.3986 28.3915 28.5258 29.2616 27.4521 29.2616H26.5441C26.0684 29.2616 25.6593 29.5522 25.4844 29.9641H24.7883C24.6143 29.5531 24.2062 29.2616 23.7286 29.2616H22.8224C21.7469 29.2616 20.876 28.3925 20.876 27.3179V20.738H29.3986V27.3179V27.3179ZM28.6026 21.5368H21.672V27.3179C21.672 27.9491 22.1866 28.4656 22.8224 28.4656H23.7286C24.2821 28.4656 24.7708 28.697 25.1243 29.0654H25.1484C25.5038 28.697 25.9925 28.4656 26.5441 28.4656H27.4521C28.088 28.4656 28.6026 27.9482 28.6026 27.3179V21.5368V21.5368Z" fill="#DACBB2"/>
<path d="M65.8891 19.2563H70.3976V19.9348H70.2745C68.8843 19.9348 68.6732 20.5447 68.6732 21.3814V25.7159C68.6732 29.5968 65.8549 30.3252 63.7835 30.3252C60.6486 30.3252 58.6651 28.9702 58.6651 26.3064V21.1186C58.6651 20.2495 58.4235 19.9348 57.4471 19.9348H57.1509V19.2563H62.6015V19.9348H62.3054C61.5732 19.9348 61.0669 20.2661 61.0669 21.1186V26.3064C61.0669 28.4306 62.6358 29.159 64.2176 29.159C66.5009 29.159 67.632 27.8715 67.632 25.9556V21.7285C67.632 20.4938 67.2812 19.9348 66.202 19.9348H65.8891V19.2563Z" fill="#3B3F54"/>
<path d="M78.5782 28.4998C78.5782 29.3513 78.8883 29.5235 79.5704 29.5235V30.0825H75.4609V29.5235C76.1745 29.4735 76.454 28.9857 76.454 27.5566V26.0433C76.454 24.6504 76.0699 24.1108 75.3758 24.1108C74.8352 24.1108 74.2605 24.3718 73.5283 24.8771V28.4109C73.5283 29.194 73.8606 29.5225 74.5548 29.5225H74.7112V30.0816H70.3083V29.5225H70.412C71.145 29.5225 71.4042 29.2106 71.4042 28.3064V24.9123C71.4042 24.5291 71.1959 24.3033 70.585 24.1293L70.2231 24.0247V23.6063L73.1979 22.5984H73.5283V24.145C74.7973 23.3111 75.9126 22.7872 76.7484 22.7872C78.021 22.7872 78.5782 23.6952 78.5782 25.7796V28.4998V28.4998Z" fill="#3B3F54"/>
<path d="M85.0714 30.0835H80.7212V29.5245H80.9128C81.6264 29.5245 81.8856 29.2116 81.8856 28.3074V24.9679C81.8856 24.5135 81.781 24.3904 81.2941 24.2173L80.7212 24.0072V23.5907L83.696 22.5994H84.0125V28.4305C84.0125 29.1441 84.3041 29.5254 85.0714 29.5254V30.0835ZM84.2541 19.831C84.2541 20.528 83.5904 21.0148 82.8796 21.0148C82.0762 21.0148 81.4876 20.5085 81.4876 19.831C81.4876 19.2044 82.1484 18.6472 82.8796 18.6472C83.6756 18.6463 84.2541 19.1702 84.2541 19.831Z" fill="#3B3F54"/>
<path d="M85.2637 22.9817H89.6842V23.5398H89.0761C88.7077 23.5398 88.5559 23.8684 88.8502 24.5126L90.3969 27.9788L91.7537 24.9133C92.1545 24.0063 91.9481 23.6592 90.7291 23.5398V22.9817H94.1917V23.5398C93.2855 23.625 93.0616 23.8517 92.7293 24.5811L90.2432 30.2039H89.1983L86.6048 24.6181C86.2762 23.9036 86.0273 23.624 85.2637 23.5389V22.9817Z" fill="#3B3F54"/>
<path d="M101.208 28.0649C100.231 29.4366 98.8235 30.2743 97.4842 30.2743C95.5831 30.2743 94.2993 28.8109 94.2993 26.7071C94.2993 24.408 95.8469 22.7874 98.0219 22.7874C98.9466 22.7874 99.6732 23.0845 100.214 23.6241C101.245 24.6505 100.754 25.6261 101.364 25.9417V26.4433H96.542C96.6817 27.8891 97.6554 28.984 98.6819 28.984C99.3261 28.984 99.9517 28.6212 100.806 27.7308L101.208 28.0649ZM98.9623 25.7658C98.9466 24.4275 98.4755 23.6074 97.7258 23.6074C97.0121 23.6074 96.368 24.5302 96.4901 25.7658H98.9623Z" fill="#3B3F54"/>
<path d="M107.125 30.0835H102.289V29.5245H102.41C103.123 29.5245 103.382 29.2125 103.382 28.3083V25.4705C103.382 24.6874 103.278 24.5144 102.755 24.3052L102.289 24.1127V23.6758L105.139 22.5994H105.508V24.5468H105.545C106.185 23.2945 106.463 22.7891 107.056 22.7891C107.18 22.7891 107.318 22.8085 107.403 22.8428L108.777 23.3491C108.57 24.0784 108.293 24.705 107.946 25.1919C107.404 24.9836 106.76 24.7587 106.533 24.7587C106.186 24.7587 105.89 25.0003 105.509 25.5417V28.3592C105.509 29.1959 105.77 29.5254 106.676 29.5254H107.126V30.0835H107.125Z" fill="#3B3F54"/>
<path d="M109.878 28.0289H110.436C110.732 29.0044 111.498 29.5246 112.245 29.5246C112.733 29.5246 113.147 29.1581 113.147 28.7258C113.147 27.5245 109.879 27.1079 109.879 24.9995C109.879 23.6759 110.977 22.7883 112.607 22.7883C113.271 22.7883 113.83 22.8929 114.56 23.1549L114.593 25.0171H114.033C113.721 24.0601 113.147 23.539 112.4 23.539C111.947 23.539 111.6 23.8176 111.6 24.1989C111.6 25.6261 115.028 25.6798 115.028 28.065C115.028 29.3515 114.106 30.2567 112.766 30.2567C111.562 30.2567 111.165 30.0114 110.921 30.0114C110.818 30.0114 110.713 30.0827 110.574 30.2382H110.068L109.878 28.0289Z" fill="#3B3F54"/>
<path d="M120.81 30.0835H116.457V29.5245H116.651C117.362 29.5245 117.624 29.2116 117.624 28.3074V24.9679C117.624 24.5135 117.525 24.3904 117.034 24.2173L116.457 24.0072V23.5907L119.433 22.5994H119.746V28.4305C119.746 29.1441 120.043 29.5254 120.81 29.5254V30.0835ZM119.991 19.831C119.991 20.528 119.33 21.0148 118.616 21.0148C117.816 21.0148 117.225 20.5085 117.225 19.831C117.225 19.2044 117.886 18.6472 118.616 18.6472C119.417 18.6463 119.991 19.1702 119.991 19.831Z" fill="#3B3F54"/>
<path d="M124.748 28.1529C124.748 28.7961 125.039 29.0729 125.545 29.0729C125.961 29.0729 126.358 28.8109 126.868 28.2028L127.111 28.6925C126.589 29.6301 125.545 30.2743 124.585 30.2743C123.405 30.2743 122.618 29.6106 122.618 28.1177V23.9378H121.696V23.4852C122.742 23.0502 123.925 21.7803 124.238 20.8066H124.748V22.9817H127.026L126.764 23.9378H124.748V28.1529Z" fill="#3B3F54"/>
<path d="M134.908 28.0649C133.935 29.4366 132.524 30.2743 131.179 30.2743C129.287 30.2743 127.997 28.8109 127.997 26.7071C127.997 24.408 129.548 22.7874 131.719 22.7874C132.644 22.7874 133.376 23.0845 133.917 23.6241C134.942 24.6505 134.457 25.6261 135.065 25.9417V26.4433H130.242C130.379 27.8891 131.356 28.984 132.381 28.984C133.029 28.984 133.656 28.6212 134.507 27.7308L134.908 28.0649ZM132.664 25.7658C132.645 24.4275 132.175 23.6074 131.431 23.6074C130.714 23.6074 130.068 24.5302 130.196 25.7658H132.664Z" fill="#3B3F54"/>
<path d="M140.223 30.0835H135.87V29.5245H136.062C136.777 29.5245 137.036 29.2116 137.036 28.3074V24.9679C137.036 24.5135 136.933 24.3904 136.443 24.2173L135.87 24.0072V23.5907L138.846 22.5994H139.159V28.4305C139.159 29.1441 139.455 29.5254 140.223 29.5254V30.0835ZM139.404 19.831C139.404 20.528 138.74 21.0148 138.029 21.0148C137.227 21.0148 136.635 20.5085 136.635 19.831C136.635 19.2044 137.296 18.6472 138.029 18.6472C138.83 18.6463 139.404 19.1702 139.404 19.831Z" fill="#3B3F54"/>
<path d="M144.154 28.1529C144.154 28.7961 144.448 29.0729 144.954 29.0729C145.37 29.0729 145.774 28.8109 146.278 28.2028L146.52 28.6925C145.998 29.6301 144.954 30.2743 143.997 30.2743C142.814 30.2743 142.029 29.6106 142.029 28.1177V23.9378H141.108V23.4852C142.15 23.0502 143.333 21.7803 143.649 20.8066H144.153V22.9817H146.431L146.169 23.9378H144.153V28.1529H144.154Z" fill="#3B3F54"/>
<path d="M159.657 19.2109H164.169V19.8884H164.045C162.654 19.8884 162.445 20.4974 162.445 21.3341V25.6667C162.445 29.5495 159.626 30.2779 157.556 30.2779C154.421 30.2779 152.437 28.9229 152.437 26.2591V21.0722C152.437 20.1994 152.195 19.8875 151.22 19.8875H150.923V19.21H156.371V19.8875H156.08C155.344 19.8875 154.843 20.2179 154.843 21.0722V26.2591C154.843 28.3823 156.405 29.1135 157.988 29.1135C160.271 29.1135 161.404 27.827 161.404 25.9111V21.6821C161.404 20.4465 161.055 19.8884 159.974 19.8884H159.658V19.2109H159.657Z" fill="#3B3F54"/>
<path d="M166.934 28.1057C166.934 28.7499 167.227 29.0248 167.733 29.0248C168.149 29.0248 168.55 28.7657 169.056 28.1566L169.302 28.6435C168.779 29.5829 167.734 30.2271 166.776 30.2271C165.596 30.2271 164.806 29.5635 164.806 28.0687V23.8935H163.886V23.4372C164.93 23.004 166.118 21.7323 166.429 20.7595H166.935V22.9346H169.213L168.954 23.8935H166.935V28.1057H166.934Z" fill="#3B3F54"/>
<path d="M174.94 30.0357H170.101V29.4794H170.222C170.937 29.4794 171.196 29.1666 171.196 28.2632V25.4254C171.196 24.6424 171.095 24.4666 170.572 24.2583L170.101 24.0649V23.6317L172.955 22.5525H173.322V24.4999H173.356C173.998 23.2467 174.278 22.7432 174.872 22.7432C174.991 22.7432 175.132 22.7617 175.218 22.795L176.592 23.3013C176.384 24.0334 176.107 24.6554 175.762 25.145C175.218 24.9349 174.576 24.71 174.346 24.71C173.999 24.71 173.707 24.9553 173.323 25.493V28.3141C173.323 29.1509 173.583 29.4804 174.491 29.4804H174.941V30.0357H174.94Z" fill="#3B3F54"/>
<path d="M184.164 28.0176C183.193 29.3893 181.782 30.2278 180.44 30.2278C178.543 30.2278 177.257 28.7664 177.257 26.6607C177.257 24.3625 178.809 22.7446 180.979 22.7446C181.904 22.7446 182.635 23.0417 183.174 23.5813C184.201 24.6069 183.715 25.5824 184.324 25.8953V26.3997H179.502C179.64 27.8454 180.615 28.9404 181.642 28.9404C182.285 28.9404 182.911 28.5766 183.767 27.6862L184.164 28.0176ZM181.922 25.7213C181.903 24.3801 181.435 23.5628 180.682 23.5628C179.971 23.5628 179.328 24.4819 179.448 25.7213H181.922Z" fill="#3B3F54"/>
<path d="M192.572 28.3648C191.773 29.5829 190.551 30.227 189.022 30.227C186.898 30.227 185.366 28.7813 185.366 26.7793C185.366 24.4996 187.335 22.7429 189.872 22.7429C191.37 22.7429 192.504 23.3695 192.504 24.2229C192.504 24.7431 192.157 25.0939 191.613 25.0939C190.398 25.0939 190.138 23.5435 189.127 23.5435C188.257 23.5435 187.661 24.6042 187.661 26.1703C187.661 28.051 188.552 29.3209 189.84 29.3209C190.625 29.3209 191.354 28.922 192.067 28.0853L192.572 28.3648Z" fill="#3B3F54"/>
<path d="M196.347 28.2797C196.347 29.3755 196.645 29.4801 197.254 29.4801H197.428V30.0364H193.021V29.4801H193.271C194.159 29.4801 194.226 29.1312 194.226 28.2084V20.6021C194.226 20.0995 194.137 19.9764 193.668 19.8191L193.164 19.646V19.2443L195.932 18.3918H196.347V24.0646C197.325 23.3871 198.573 22.7439 199.481 22.7439C200.756 22.7439 201.381 23.7685 201.381 25.8232V28.1232C201.381 29.1506 201.5 29.4801 202.164 29.4801H202.336V30.0364H198.228V29.4801H198.369C199.099 29.4801 199.257 29.1988 199.257 28.2084V25.5807C199.257 24.6422 198.822 24.0498 198.126 24.0498C197.653 24.0498 196.958 24.309 196.348 24.7098V28.2797H196.347Z" fill="#3B3F54"/>
<path d="M206.133 28.1057C206.133 28.7499 206.427 29.0248 206.93 29.0248C207.349 29.0248 207.747 28.7657 208.256 28.1566L208.5 28.6435C207.976 29.5829 206.931 30.2271 205.974 30.2271C204.792 30.2271 204.007 29.5635 204.007 28.0687V23.8935H203.087V23.4372C204.132 23.004 205.314 21.7323 205.625 20.7595H206.133V22.9346H208.409L208.154 23.8935H206.133V28.1057H206.133Z" fill="#3B3F54"/>
</svg>
